<svg xmlns="http://www.w3.org/2000/svg" viewBox="0 0 500 500"><g id="freepik--Shadow--inject-4"><path d="M451.32,446.59c0,14.19-90.14,25.7-201.32,25.7S48.68,460.78,48.68,446.59s90.14-25.7,201.32-25.7S451.32,432.4,451.32,446.59Z" style="fill:#ebebeb"></path></g><g id="freepik--Plant--inject-4"><path d="M400.14,326.64s-16.59-3.76-25.68-12.14-14.18-23.39-14.18-23.39A142.62,142.62,0,0,1,378.89,296a31.37,31.37,0,0,1,5.63,8,37.83,37.83,0,0,0,0-5.69,25.17,25.17,0,0,1,5.91,3.58C398,308.45,400.14,326.64,400.14,326.64Z" style="fill:#0095F6"></path><path d="M370.64,298.4c-2.26-1.56-4.56-3.07-6.81-4.65-.14-.09,0-.31.13-.22,4.28,2.55,8.49,5.28,12.57,8.14q2.13,1.5,4.2,3.09l-.29-.49c-.5-.83-1-1.65-1.55-2.47a34.89,34.89,0,0,0-3.52-4.7c-.05-.05,0-.13.08-.08,1.29,1.49,2.58,3,3.76,4.55.56.75,1.08,1.53,1.58,2.32.26.42.51.83.74,1.26l.25.42c2.15,1.69,4.24,3.45,6.23,5.3q1.85,1.72,3.57,3.56c-.65-2-1.21-4-1.95-6,0-.07.09-.1.11,0,.72,2.07,1.51,4.16,2.07,6.29,1.27,1.37,2.49,2.79,3.63,4.28l-.06-.27c-.19-.79-.38-1.57-.59-2.34-.4-1.5-.85-3-1.35-4.47a26,26,0,0,0-4.46-8.41c-.05-.06,0-.14.08-.08a32.45,32.45,0,0,1,6.36,13.27c.18.7.34,1.41.5,2.12.09.38.19.76.25,1.15.5.68,1,1.36,1.47,2.06a72.59,72.59,0,0,1,7,13.77A159.93,159.93,0,0,1,410,352.34a.09.09,0,0,1-.17,0c-3.25-9.71-6.56-19.56-12.12-28.23a63.94,63.94,0,0,0-3.79-5.31,31.31,31.31,0,0,1-8.07-1.6,36.31,36.31,0,0,1-8.08-3.91,50.08,50.08,0,0,1-4.15-3.13.06.06,0,1,1,.07-.09,33.17,33.17,0,0,0,7.61,4.61,41.17,41.17,0,0,0,8.37,2.8c1.22.27,2.47.47,3.71.64a69.72,69.72,0,0,0-4.89-5.42c-.56-.56-1.14-1.1-1.72-1.64a39.17,39.17,0,0,0-6.13-3.51c-2.72-1.32-5.4-2.71-8.09-4.08-1.52-.77-3-1.56-4.55-2.31-.07,0,0-.12.06-.09,2.72,1.32,5.49,2.55,8.24,3.81s5.22,2.38,7.7,3.77l.32.19c-2.25-2-4.58-3.82-7-5.62C375.14,301.6,372.91,300,370.64,298.4Z" style="fill:#263238"></path><path d="M371.59,307c1.35.59,2.72,1.11,4.06,1.74s2.67,1.39,4,2.16a.05.05,0,1,1-.05.09c-1.32-.63-2.66-1.22-4-1.88s-2.67-1.4-4.05-2C371.49,307,371.52,306.93,371.59,307Z" style="fill:#263238"></path><path d="M454,243a23.72,23.72,0,0,0-5,13.78c-.05,1.49.18,3.57.36,6a39.43,39.43,0,0,0-10.83,9.26,19.58,19.58,0,0,1,10.94-2.62,33.83,33.83,0,0,1-.63,5,18.6,18.6,0,0,0-7,1.39,15.75,15.75,0,0,1,6.34,1.26c-3,9.41-11.74,19.08-36,23.18a51,51,0,0,1,4.3-34.16C423.77,251.76,454,243,454,243Z" style="fill:#0095F6"></path><path d="M403.8,340.49q.63-6,1.57-12a240,240,0,0,1,4.89-23.76,95.68,95.68,0,0,1,3.51-10.83,15.84,15.84,0,0,1-.09-1.94c0-.78,0-1.56,0-2.34,0-1.55.09-3.1.22-4.65a56.19,56.19,0,0,1,1.49-9.11c.45-1.73,1-3.43,1.47-5.14a.06.06,0,0,1,.11,0,66.73,66.73,0,0,0-1.8,9.09,86.81,86.81,0,0,0-.81,9.11c0,.83-.05,1.67-.05,2.5,0,.36,0,.72,0,1.07a79.26,79.26,0,0,1,4.09-8.46,103.48,103.48,0,0,1,8.31-12.43,5.2,5.2,0,0,1,.2-1.36c.11-.54.23-1.08.35-1.63.25-1.1.53-2.21.83-3.3.6-2.2,1.4-4.33,2.09-6.5a.06.06,0,0,1,.11,0c-.64,2.15-1.07,4.38-1.56,6.57-.25,1.08-.48,2.16-.72,3.25-.12.54-.24,1.08-.35,1.62,0,0,0,.09,0,.13q1.47-1.86,3-3.66c4.63-5.44,9.71-10.46,14.83-15.43.63-.62,1.27-1.21,1.91-1.82,0,0,.13,0,.08.09-4.89,5.1-9.7,10.25-14.26,15.65-1.09,1.29-2.15,2.59-3.2,3.9l1.66-1.1c1.41-.92,2.84-1.82,4.31-2.64s3-1.64,4.47-2.39,3.22-1.4,4.73-2.27c.06,0,.12.07.05.1a34.81,34.81,0,0,0-4.43,2.45c-1.48.88-2.95,1.76-4.4,2.68s-2.86,1.8-4.28,2.72c-1.18.77-2.34,1.61-3.57,2.31a116.4,116.4,0,0,0-7.78,11.32,84.15,84.15,0,0,0-4,7.63l.87-.38,2.23-1c1.42-.63,2.86-1.25,4.29-1.87,2.72-1.19,5.49-2.27,8.16-3.57a37.8,37.8,0,0,0,4.36-2.42c.06,0,.11,0,.05.1-5,3.43-10.56,5.84-16.06,8.28l-2.39,1.06c-.66.29-1.32.61-2,.87a84.9,84.9,0,0,0-4.11,11.25,230.13,230.13,0,0,0-5.28,23.48c-1.39,7.93-2.33,15.91-3.06,23.93-.09,1-.18,2-.3,3a.32.32,0,0,1-.63,0C403,348.61,403.37,344.54,403.8,340.49Z" style="fill:#263238"></path><path d="M418.57,273.45c.44-2.47,1.1-4.88,1.76-7.3,0-.07.13,0,.11,0-.61,2.37-1.05,4.79-1.5,7.19s-.85,4.92-1.2,7.39c0,0-.07.05-.07,0A64.44,64.44,0,0,1,418.57,273.45Z" style="fill:#263238"></path><path d="M429,280.14a44.7,44.7,0,0,1,5.28-3c.88-.45,1.78-.89,2.67-1.32s1.89-.82,2.81-1.28c.06,0,.11.06,0,.09-.89.45-1.73,1-2.6,1.46l-2.7,1.48c-1.77.95-3.52,2-5.38,2.78A.14.14,0,0,1,429,280.14Z" style="fill:#263238"></path><path d="M399.84,297.9s-15.35-3.67-22.4-14c-6.73-9.83-8.91-26.6-9.08-28.08.27,1.36,3.44,16,13.89,22.84C390.26,283.92,398,288.22,399.84,297.9Z" style="fill:#263238;opacity:0.1"></path><path d="M385.67,271.37a19.6,19.6,0,0,1,5.66,9.32,0,0,0,1,1-.05,0,22.8,22.8,0,0,0-5.68-9.25C385.54,271.41,385.62,271.32,385.67,271.37Z" style="fill:#263238"></path><path d="M399.84,297.9s-15.35-3.67-22.4-14c-6.73-9.83-8.91-26.6-9.08-28.08a.35.35,0,0,1,0-.1s7.36,10.47,15.1,13.14S402.06,280.79,399.84,297.9Z" style="fill:#0095F6"></path><path d="M371.06,261.52a62.65,62.65,0,0,0,4.75,8.12,32.39,32.39,0,0,0,6.31,6.5c2.09,1.66,4.29,3.16,6.4,4.78l0-.08c-.4-.58-.82-1.16-1.26-1.71-.88-1.13-1.84-2.19-2.81-3.24-1.9-2.07-3.85-4.1-5.56-6.34a23.15,23.15,0,0,1-2.46-4c0-.07.07-.1.1,0,2.49,5.19,7.47,8.51,11,12.89a23.94,23.94,0,0,1,1.41,1.94,8.28,8.28,0,0,1,.89,1.56,32.44,32.44,0,0,1,5.24,5.3,21,21,0,0,0-.62-3,14.79,14.79,0,0,0-1.63-3.89c0-.06.06-.13.1-.06a18.8,18.8,0,0,1,1.79,3.86,13.42,13.42,0,0,1,.56,3.31h0a30.58,30.58,0,0,1,2.08,3.23c-.07-.33-.13-.66-.19-1-.31-1.53-.64-3.06-1-4.57a27.52,27.52,0,0,0-3.69-8.65c-.05-.06,0-.12.09-.06a32.91,32.91,0,0,1,4.09,8.46c.49,1.51.88,3,1.23,4.59.17.75.32,1.51.46,2.27.08.39.16.8.23,1.2a55.79,55.79,0,0,1,3.54,10.41,153.29,153.29,0,0,1,3.27,19.41,161.33,161.33,0,0,1,1.06,20.61c0,.87-.07,1.73-.11,2.59,0,.22-.35.26-.36,0-.15-3.41-.24-6.82-.44-10.22s-.5-6.8-.86-10.2a182.29,182.29,0,0,0-3.2-19.85c-1.25-5.61-2.86-11.26-5.93-16.18a30.4,30.4,0,0,0-5.54-6.59c-2.15-1.93-4.5-3.62-6.77-5.41a37.07,37.07,0,0,1-6.22-6,49.14,49.14,0,0,1-4.88-7.92l-1.1-2.08C370.93,261.52,371,261.46,371.06,261.52Z" style="fill:#263238"></path><path d="M373.71,263.78a53.64,53.64,0,0,0,3.42,6s0,.09-.07,0a41.42,41.42,0,0,1-3.46-6C373.57,263.75,373.68,263.71,373.71,263.78Z" style="fill:#263238"></path><path d="M456.18,291.11s.25,21.82-12.8,28.11-20,1.06-28.9,3.17h0c.34-.52,6.67-9.62,16.73-12.12C441.57,307.68,453,300.2,456.18,291.11Z" style="fill:#0095F6"></path><path d="M456.18,291.11s.25,21.82-12.8,28.11-20,1.06-28.9,3.17h0A49.32,49.32,0,0,1,429.32,318C437.55,317,453.26,311.65,456.18,291.11Z" style="opacity:0.1"></path><path d="M413.62,322.78a21.6,21.6,0,0,1,5.19-3.52c.27-.13.56-.24.85-.36a5.15,5.15,0,0,1,.43-.5c.4-.41.8-.8,1.23-1.17a18.83,18.83,0,0,1,2.63-1.89c2.16-1.27,4.53-2.16,6.74-3.34.06,0,.12.06.05.1-1.09.56-2.15,1.19-3.21,1.81s-2.09,1.18-3.1,1.83a23.1,23.1,0,0,0-2.58,1.93c-.23.2-.45.42-.67.64a35.36,35.36,0,0,1,4.41-1.17c2.39-.48,4.8-.82,7.19-1.33a34.62,34.62,0,0,0,3.46-.93c1.08-.88,2.16-1.74,3.19-2.69a26.61,26.61,0,0,0,3.37-3.74c0-.05.14,0,.09.06a40.4,40.4,0,0,1-5.34,5.91c.56-.22,1.11-.45,1.66-.7a26.83,26.83,0,0,0,11.12-9.25c0-.06.14,0,.1.06a30.51,30.51,0,0,1-9,8.64,27.1,27.1,0,0,1-5.68,2.69,53.25,53.25,0,0,1-7.06,1.67,49.24,49.24,0,0,0-6.91,1.64,20.91,20.91,0,0,0-5.8,3.05,27.18,27.18,0,0,0-7.82,9.69,48.8,48.8,0,0,0-4.31,16c0,.23-.38.23-.37,0C404.09,338.69,406.55,329.14,413.62,322.78Z" style="fill:#263238"></path><path d="M428.76,315.66a7.46,7.46,0,0,1,2.68-2.43,9.92,9.92,0,0,0,3.19-2.64c0-.06.14,0,.09.06a10.89,10.89,0,0,1-2.81,2.52,9.94,9.94,0,0,0-3.07,2.54C428.8,315.76,428.72,315.71,428.76,315.66Z" style="fill:#263238"></path><polygon points="421.83 338.88 421.24 350.88 419.42 387.53 392.05 387.53 390.23 350.88 389.64 338.88 421.83 338.88" style="fill:#37474f"></polygon><polygon points="421.83 338.88 421.24 350.88 390.23 350.88 389.64 338.88 421.83 338.88" style="fill:#263238"></polygon><rect x="387.72" y="333.87" width="36.03" height="11.45" style="fill:#37474f"></rect></g><g id="freepik--Floor--inject-4"><polygon points="42.22 387.53 94.16 387.29 146.11 387.2 250 387.03 353.89 387.2 405.84 387.29 457.78 387.53 405.84 387.78 353.89 387.87 250 388.03 146.11 387.86 94.16 387.78 42.22 387.53" style="fill:#263238"></polygon></g><g id="freepik--Device--inject-4"><rect x="62.84" y="114.78" width="374.31" height="250.43" rx="12.89" transform="translate(490 -10) rotate(90)" style="fill:#263238"></rect><rect x="135.64" y="79.04" width="229.01" height="322.14" style="fill:#fff"></rect><rect x="248.05" y="40.8" width="3.89" height="54.5" rx="1.25" transform="translate(318.04 -181.95) rotate(90)" style="fill:#37474f"></rect><circle cx="250" cy="413.84" r="7.05" style="fill:#37474f"></circle><rect x="170.93" y="123.28" width="158.44" height="2.23" style="fill:#ebebeb"></rect><rect x="170.93" y="130.2" width="158.44" height="2.23" style="fill:#ebebeb"></rect><rect x="170.93" y="340.93" width="158.44" height="2.23" style="fill:#ebebeb"></rect><rect x="170.93" y="347.85" width="158.44" height="2.23" style="fill:#ebebeb"></rect><circle cx="209.45" cy="364.54" r="7.32" style="fill:#0095F6"></circle><polygon points="209.57 368.81 205.21 364.4 206.68 362.95 209.22 365.53 214.52 357.23 216.25 358.34 209.57 368.81" style="fill:#fff"></polygon><path d="M227.78,364.48a4.6,4.6,0,0,1,.28-1.54,4.11,4.11,0,0,1,.83-1.36,4,4,0,0,1,3.09-1.35,3.85,3.85,0,0,1,2,.52,3.27,3.27,0,0,1,1.27,1.34L234,363a2.1,2.1,0,0,0-.41-.61,2.31,2.31,0,0,0-.51-.39,2.52,2.52,0,0,0-.58-.21,3,3,0,0,0-.59-.06,2.21,2.21,0,0,0-1.08.25,2.32,2.32,0,0,0-.77.65,2.89,2.89,0,0,0-.46.91,3.33,3.33,0,0,0,0,2.1,2.84,2.84,0,0,0,.51.92,2.71,2.71,0,0,0,.79.64,2.19,2.19,0,0,0,1,.24,2.61,2.61,0,0,0,.6-.08,2.1,2.1,0,0,0,.59-.22,2.49,2.49,0,0,0,.52-.4,2.07,2.07,0,0,0,.39-.6l1.35.78a2.57,2.57,0,0,1-.58.85,3.47,3.47,0,0,1-.85.61,4.37,4.37,0,0,1-2.07.52,3.73,3.73,0,0,1-1.67-.38,4.3,4.3,0,0,1-1.3-1,4.65,4.65,0,0,1-.85-1.4A4.26,4.26,0,0,1,227.78,364.48Z" style="fill:#0095F6"></path><path d="M240.08,368.86a3.82,3.82,0,0,1-1.7-.37,4.29,4.29,0,0,1-2.15-2.36,4.36,4.36,0,0,1-.3-1.59,4.3,4.3,0,0,1,.32-1.63,4.49,4.49,0,0,1,.87-1.38,4.4,4.4,0,0,1,1.33-1,4,4,0,0,1,1.67-.35,3.61,3.61,0,0,1,1.68.38,4.16,4.16,0,0,1,1.31,1A4.57,4.57,0,0,1,244,363a4.38,4.38,0,0,1,.3,1.58,4.3,4.3,0,0,1-.32,1.63,4.24,4.24,0,0,1-.86,1.37,4.18,4.18,0,0,1-1.32.94A3.88,3.88,0,0,1,240.08,368.86Zm-2.47-4.32a3.52,3.52,0,0,0,.17,1.07,2.94,2.94,0,0,0,.48.91,2.67,2.67,0,0,0,.78.64,2.25,2.25,0,0,0,1.05.23,2.31,2.31,0,0,0,1.07-.24,2.56,2.56,0,0,0,.78-.65,3.11,3.11,0,0,0,.48-.92,3.7,3.7,0,0,0,.16-1,3.21,3.21,0,0,0-.18-1.07,2.85,2.85,0,0,0-.49-.91,2.17,2.17,0,0,0-.78-.63,2.21,2.21,0,0,0-1-.23,2.27,2.27,0,0,0-1.06.24,2.16,2.16,0,0,0-.78.65,2.94,2.94,0,0,0-.48.91A3.37,3.37,0,0,0,237.61,364.54Z" style="fill:#0095F6"></path><path d="M247.17,363.34v5.46h-1.65v-8.52h1.28l4.44,5.59v-5.58h1.66v8.51h-1.35Z" style="fill:#0095F6"></path><path d="M254.67,368.8v-8.52h5.73v1.45h-4.07v2.2h3.38v1.34h-3.38v3.53Z" style="fill:#0095F6"></path><path d="M261.56,368.8v-8.52h1.66v8.52Z" style="fill:#0095F6"></path><path d="M265,368.8v-8.52h3.77a2.49,2.49,0,0,1,1.09.24,3.1,3.1,0,0,1,.86.65,3.29,3.29,0,0,1,.56.91,2.69,2.69,0,0,1,.2,1,2.81,2.81,0,0,1-.41,1.51,2.39,2.39,0,0,1-1.12,1l1.94,3.21H270l-1.74-2.86h-1.63v2.86Zm1.66-4.31h2.08a.78.78,0,0,0,.42-.11,1.05,1.05,0,0,0,.34-.29,1.32,1.32,0,0,0,.23-.44,1.61,1.61,0,0,0,.09-.54,1.63,1.63,0,0,0-.1-.55,1.39,1.39,0,0,0-.26-.44,1.28,1.28,0,0,0-.37-.29.94.94,0,0,0-.43-.1h-2Z" style="fill:#0095F6"></path><path d="M279.92,368.8v-5.64l-2.19,4.2h-.9l-2.2-4.2v5.64H273v-8.52h1.78l2.52,4.85,2.54-4.85h1.77v8.52Z" style="fill:#0095F6"></path><path d="M289.27,367.35v1.45h-5.92v-8.52h5.81v1.45H285v2h3.59v1.35H285v2.22Z" style="fill:#0095F6"></path><path d="M290.57,368.8v-8.52h3.09a4.49,4.49,0,0,1,1.83.34,3.67,3.67,0,0,1,1.32.91,3.79,3.79,0,0,1,.79,1.35,5.43,5.43,0,0,1,0,3.41,3.72,3.72,0,0,1-2.17,2.2,4.61,4.61,0,0,1-1.74.31Zm5.62-4.27a3.39,3.39,0,0,0-.17-1.13,2.41,2.41,0,0,0-.49-.89,2.19,2.19,0,0,0-.79-.58,2.85,2.85,0,0,0-1.08-.2h-1.44v5.62h1.44a2.68,2.68,0,0,0,1.09-.22,2.22,2.22,0,0,0,.79-.59,2.59,2.59,0,0,0,.48-.9A3.31,3.31,0,0,0,296.19,364.53Z" style="fill:#0095F6"></path></g><g id="freepik--Envelope--inject-4"><polygon points="312.64 325.4 187.36 325.4 187.36 219.42 249.99 179.64 312.64 219.42 312.64 325.4" style="fill:#0095F6"></polygon><polygon points="312.64 325.4 187.36 325.4 187.36 219.42 249.99 179.64 312.64 219.42 312.64 325.4" style="opacity:0.2"></polygon><rect x="194.42" y="174.6" width="111.15" height="142.69" style="fill:#ebebeb"></rect><polygon points="243.23 259.97 217.78 234.21 226.33 225.76 241.2 240.81 272.08 192.39 282.22 198.85 243.23 259.97" style="fill:#0095F6"></polygon><path d="M312.64,246V325.4H187.36V246c5.38,3,10.67,6.24,16,9.36s10.61,6.36,15.88,9.6c5.87,3.57,11.74,7.21,17.59,10.87l.19-.11c-.06,0-.1.1-.15.13Q243.43,279.9,250,284c4.36-2.75,8.75-5.52,13.13-8.23-.05,0-.09-.09-.15-.13a.87.87,0,0,0,.19.1q8.77-5.47,17.59-10.88,7.91-4.83,15.86-9.58C302,252.19,307.26,249,312.64,246Z" style="fill:#0095F6"></path><g style="opacity:0.2"><path d="M312.64,246c-5.06,3.55-10.21,7-15.31,10.46s-10.29,6.84-15.47,10.23q-8.1,5.31-16.23,10.52l-.49.34-14.43,9.2-.72.43-.7-.43-14.41-9.22-.51-.32q-8.15-5.22-16.25-10.54c-5.16-3.37-10.31-6.79-15.45-10.21S192.42,249.5,187.36,246c5.38,3,10.67,6.24,16,9.36s10.61,6.36,15.88,9.6c5.87,3.57,11.74,7.21,17.59,10.87l0,0Q243.43,279.9,250,284c4.36-2.75,8.75-5.52,13.13-8.23,0,0,0,0,0,0q8.77-5.47,17.59-10.88,7.91-4.83,15.86-9.58C302,252.19,307.26,249,312.64,246Z"></path><path d="M237,275.67c-.06,0-.1.1-.15.13l-2,1.68c-3.14,2.65-6.36,5.19-9.63,7.66-4,3-8.07,6-12.17,8.86s-8.26,5.66-12.5,8.37-8.5,5.36-12.92,7.79c3.8-3.33,7.75-6.44,11.74-9.46s8.09-6,12.17-8.87,8.28-5.68,12.51-8.39c3.37-2.16,6.8-4.29,10.29-6.28.81-.47,1.62-.92,2.45-1.38Z"></path><path d="M312.34,310.16c-4.42-2.43-8.71-5.08-12.92-7.79S291,296.84,286.9,294s-8.18-5.82-12.17-8.86c-3.25-2.47-6.47-5-9.59-7.64l-2-1.7c-.05,0-.09-.09-.15-.13a.87.87,0,0,0,.19.1c.83.47,1.64.92,2.45,1.39,3.49,2,6.9,4.12,10.29,6.28,4.23,2.71,8.37,5.53,12.49,8.39s8.18,5.82,12.17,8.87S308.54,306.83,312.34,310.16Z"></path></g><path d="M196.4,167.8a68.73,68.73,0,0,1,0-16.55,68.72,68.72,0,0,1,0,16.55Z" style="fill:#263238"></path><path d="M189.36,170.43a61.32,61.32,0,0,1-6.21-5.5,60.14,60.14,0,0,1-5.5-6.2,69,69,0,0,1,11.71,11.7Z" style="fill:#263238"></path><path d="M186.25,177.26a60.54,60.54,0,0,1-8.28.5,58.93,58.93,0,0,1-8.27-.49,58.85,58.85,0,0,1,8.27-.5A60.53,60.53,0,0,1,186.25,177.26Z" style="fill:#263238"></path><path d="M188.88,184.29A69.51,69.51,0,0,1,177.18,196a68.53,68.53,0,0,1,11.7-11.72Z" style="fill:#263238"></path><path d="M302.85,167.8a62.16,62.16,0,0,1-.49-8.28,60.31,60.31,0,0,1,.51-8.27,68.73,68.73,0,0,1,0,16.55Z" style="fill:#263238"></path><path d="M309.89,170.43a69,69,0,0,1,11.71-11.7,60.14,60.14,0,0,1-5.5,6.2A61.32,61.32,0,0,1,309.89,170.43Z" style="fill:#263238"></path><path d="M313,177.26a60.53,60.53,0,0,1,8.28-.49,58.76,58.76,0,0,1,8.27.5,58.84,58.84,0,0,1-8.27.49A60.54,60.54,0,0,1,313,177.26Z" style="fill:#263238"></path><path d="M310.37,184.29A68.53,68.53,0,0,1,322.07,196a61.44,61.44,0,0,1-6.2-5.51A60.25,60.25,0,0,1,310.37,184.29Z" style="fill:#263238"></path></g><g id="freepik--Character--inject-4"><path d="M169.29,457.12c-2.16.7-63.69-.1-66-1.62-.89-.56-1.3-9.53-1.48-20.39v-.34c0-2.23-.07-4.54-.08-6.87,0-.32,0-.64,0-1l3-31.92,41.16.41-4.07,31.62,0,1.25-.25,6.54,0,.68s23.42,10.84,25.8,12.78S171.44,456.44,169.29,457.12Z" style="fill:#f7a9a0"></path><path d="M169.29,457.12c-2.16.7-63.69-.1-66-1.62-.89-.56-1.3-9.53-1.48-20.39v-.34c0-2.23-.07-4.54-.08-6.87,0-.32,0-.64,0-1l40.08.11,0,1.25-.25,6.54,0,.68s23.42,10.84,25.8,12.78S171.44,456.44,169.29,457.12Z" style="fill:#ebebeb"></path><path d="M169.47,457.27c-2.18.7-64.27.11-66.62-1.41-.9-.57-1.34-9.62-1.56-20.57l40,.27s23.67,10.86,26.08,12.8S171.64,456.56,169.47,457.27Z" style="fill:#0095F6"></path><path d="M168.6,454.78c-10.4-.36-52.41-.81-62.72-.37-.08,0-.08.06,0,.07,10.31.57,52.31.68,62.72.47C168.82,454.94,168.82,454.78,168.6,454.78Z" style="fill:#263238"></path><path d="M163.42,446.09a8.41,8.41,0,0,0-6.25,2.48,8.15,8.15,0,0,0-2.38,5.54c0,.06.12.06.13,0a9.66,9.66,0,0,1,8.5-7.89A.07.07,0,1,0,163.42,446.09Z" style="fill:#263238"></path><path d="M145.35,436.64c-4.17-.1-9,1.32-11.63,4.7-.1.14.09.28.21.21a57.87,57.87,0,0,1,11.49-4.4A.26.26,0,0,0,145.35,436.64Z" style="fill:#263238"></path><path d="M148.55,437.92c-4.16-.1-9,1.33-11.63,4.71-.1.13.09.27.21.21a57.53,57.53,0,0,1,11.49-4.41A.26.26,0,0,0,148.55,437.92Z" style="fill:#263238"></path><path d="M151.76,439.2c-4.17-.09-9,1.33-11.63,4.71-.1.13.08.28.21.21a58,58,0,0,1,11.48-4.4A.27.27,0,0,0,151.76,439.2Z" style="fill:#263238"></path><path d="M155,440.49c-4.16-.1-9,1.33-11.63,4.71-.1.13.09.27.21.21A57.53,57.53,0,0,1,155,441,.26.26,0,0,0,155,440.49Z" style="fill:#263238"></path><path d="M108.63,444.55c-4.68,0-4.73,7.23,0,7.26S113.31,444.58,108.63,444.55Z" style="fill:#fff"></path><path d="M150,425.56c-2.09-1.77-4.77-.08-6.08,1.72A21.84,21.84,0,0,0,140,437.9c0,.08.06.12.13.12a.5.5,0,0,0,.74.34c3-2,6.43-3.82,8.71-6.69C150.9,430,151.94,427.24,150,425.56Zm-5.2,8.81c-1.44,1-2.93,2-4.33,3.07a64.69,64.69,0,0,1,2.4-6.15,24.61,24.61,0,0,1,1.55-2.8c.92-1.37,5-4.81,5.41-.27C150,430.72,146.48,433.14,144.76,434.37Z" style="fill:#263238"></path><path d="M129.62,439.34c3.63.59,7.38-.4,10.95-.92a.52.52,0,0,0,.32-.76.11.11,0,0,0,0-.17,21.78,21.78,0,0,0-10-5.22c-2.19-.45-5.3.11-5.65,2.83C124.89,437.67,127.51,439,129.62,439.34ZM127.13,437c-2.78-3.6,2.58-3.84,4.18-3.45a23,23,0,0,1,3,1c2.06.82,4,1.91,5.93,2.92-1.77.15-3.51.45-5.28.66C132.89,438.35,128.67,438.93,127.13,437Z" style="fill:#263238"></path><path d="M134.3,457.37c-15.43-.27-30.32-.78-31.45-1.51-.9-.57-1.34-9.62-1.56-20.57l5.7,0C113.29,440.45,126.62,451.18,134.3,457.37Z" style="opacity:0.1"></path><path d="M144.2,435H99.89s8.92-103.49,8.57-105.3c-.44-2.32-3.06-12.79-6.54-26.48-1.09-4.28-2.27-8.87-3.49-13.63-3.31-12.88-7-26.95-10.12-39.2-4.76-18.34-8.48-32.59-8.48-32.59h37.55s4.38,13.87,9.9,31.93c9,29.33,21,69.71,22.18,79.53C151.38,345.09,144.2,435,144.2,435Z" style="fill:#37474f"></path><path d="M142.24,427.42c-6.77-.14-4.83-.19-11.6-.26-3.31,0-25.07-.22-28.17.29a.07.07,0,0,0,0,.14c3.1.51,24.86.32,28.17.29,6.77-.06,4.83-.12,11.6-.26A.1.1,0,0,0,142.24,427.42Z" style="fill:#263238"></path><path d="M116.8,323.35c-1.45-6.4-3.63-12.68-5.52-19q-5.76-19.15-11.59-38.3-2.91-9.57-5.84-19.14-1.48-4.83-3-9.65c-1-3.15-2.11-6.26-3-9.44-.36-1.29-.56-.58-.09,1.06.93,3.3,1.85,6.61,2.82,9.91q2.85,9.8,5.76,19.58,5.76,19.47,11.62,38.91,2.93,9.76,5.87,19.5a78.58,78.58,0,0,1,2.39,9.44,43.12,43.12,0,0,1,.4,10.09c-.43,6.78-1.22,13.55-1.84,20.31s-1.26,13.56-1.88,20.33q-1.87,20.24-3.72,40.47c-.15,1.71-.3,3.42-.43,5.14,0,.57.82.52.88,0,1.46-13.33,2.58-26.72,3.83-40.07s2.5-26.59,3.74-39.88c.31-3.34.67-6.68.67-10A41.55,41.55,0,0,0,116.8,323.35Z" style="fill:#263238"></path><path d="M113.12,217.78c-2.61,20.17-7.58,58-11.2,85.42C93.45,270,79.83,217.78,79.83,217.78Z" style="fill:#263238"></path><path d="M122.34,457.72c-2.15.7-63.68.13-66-1.38-.89-.56-1.33-9.53-1.55-20.39v-.34c-.05-2.23-.09-4.54-.1-6.87,0-.32,0-.64,0-1-.14-15.66,1-31.91,1-31.91l40.22.26-1.13,31.62,0,1.25-.22,6.55,0,.67S117.91,447,120.29,448.9,124.5,457,122.34,457.72Z" style="fill:#f7a9a0"></path><path d="M122.34,457.72c-2.15.7-63.68.13-66-1.38-.89-.56-1.33-9.53-1.55-20.39v-.34c-.05-2.23-.09-4.54-.1-6.87,0-.32,0-.64,0-1l40.08,0,0,1.25-.22,6.55,0,.67S117.91,447,120.29,448.9,124.5,457,122.34,457.72Z" style="fill:#ebebeb"></path><path d="M122.59,457.59c-2.18.7-64.27.11-66.62-1.41-.9-.57-1.34-9.62-1.56-20.57l40,.27s23.67,10.86,26.07,12.8S124.76,456.88,122.59,457.59Z" style="fill:#0095F6"></path><path d="M121.72,455.1c-10.41-.36-52.41-.81-62.72-.37-.08,0-.08.06,0,.06,10.3.58,52.31.69,62.72.48C121.94,455.26,121.94,455.1,121.72,455.1Z" style="fill:#263238"></path><path d="M116.54,446.41a8.4,8.4,0,0,0-6.25,2.48,8.11,8.11,0,0,0-2.38,5.54c0,.06.12.06.13,0a9.66,9.66,0,0,1,8.5-7.89A.07.07,0,0,0,116.54,446.41Z" style="fill:#263238"></path><path d="M98.47,437c-4.17-.09-9,1.33-11.63,4.71-.1.13.08.28.21.21a57.87,57.87,0,0,1,11.49-4.4A.27.27,0,0,0,98.47,437Z" style="fill:#263238"></path><path d="M101.67,438.24c-4.16-.1-9,1.32-11.63,4.71-.1.13.09.27.21.21a57.53,57.53,0,0,1,11.49-4.41A.26.26,0,0,0,101.67,438.24Z" style="fill:#263238"></path><path d="M104.88,439.52c-4.17-.1-9,1.33-11.63,4.71-.11.13.08.27.21.21a57.17,57.17,0,0,1,11.48-4.4A.27.27,0,0,0,104.88,439.52Z" style="fill:#263238"></path><path d="M108.08,440.81c-4.17-.1-9,1.32-11.63,4.71-.1.13.09.27.21.21a57.29,57.29,0,0,1,11.49-4.41A.26.26,0,0,0,108.08,440.81Z" style="fill:#263238"></path><path d="M61.75,444.87c-4.68,0-4.73,7.23,0,7.26S66.43,444.9,61.75,444.87Z" style="fill:#fff"></path><path d="M103.08,425.88c-2.1-1.77-4.77-.08-6.09,1.72a21.83,21.83,0,0,0-3.88,10.61.11.11,0,0,0,.13.12.5.5,0,0,0,.74.35c3-2,6.43-3.82,8.71-6.7C104,430.3,105.06,427.55,103.08,425.88Zm-5.2,8.81c-1.44,1-2.93,2-4.33,3.06A64.69,64.69,0,0,1,96,431.6a24.47,24.47,0,0,1,1.55-2.79c.92-1.37,5-4.81,5.41-.28C103.12,431,99.6,433.46,97.88,434.69Z" style="fill:#263238"></path><path d="M82.74,439.66c3.62.59,7.38-.41,10.94-.92A.51.51,0,0,0,94,438a.11.11,0,0,0,0-.18,21.93,21.93,0,0,0-10-5.22c-2.19-.44-5.3.12-5.65,2.84C78,438,80.63,439.31,82.74,439.66Zm-2.49-2.4c-2.78-3.6,2.58-3.83,4.18-3.44a23,23,0,0,1,3,1,65,65,0,0,1,5.92,2.92c-1.77.15-3.51.44-5.27.66C86,438.67,81.79,439.25,80.25,437.26Z" style="fill:#263238"></path><path d="M116.17,217.78s-.87,18-5,32.2c-.33,1.18-.69,2.33-1.07,3.44A67.09,67.09,0,0,0,99.29,259s-.43,14.45-.86,30.58c-.48,18-1,38.12-.88,42.39.38,16-2,103.67-2,103.67l-44.31.18s8-98,8-103.81c-.09-9.39,2.14-50.91,3.87-81.18,1-18.66,1.92-33,1.92-33Z" style="fill:#37474f"></path><path d="M94,427.75c-6.77-.11-4.83-.17-11.59-.21-3.32,0-25.08-.12-28.17.41a.07.07,0,0,0,0,.14c3.09.5,24.86.21,28.17.17,6.77-.1,4.82-.14,11.59-.31A.1.1,0,0,0,94,427.75Z" style="fill:#263238"></path><path d="M68.72,224.2c-.82,24.72-1.68,49.44-2.79,74.14s-2.6,49.58-4.67,74.3c-1.16,13.82-2.26,33.26-3.75,47,0,.09.13.13.15,0,3.22-24.52,5-54.83,6.61-79.51s2.66-49.38,3.5-74.08c.48-14,.84-28,1.26-41.94C69,224,68.73,224,68.72,224.2Z" style="fill:#263238"></path><path d="M112,252.35A83,83,0,0,0,99.29,259a.15.15,0,0,0,.14.26c4.27-2.08,8.63-4.08,12.79-6.39A.29.29,0,0,0,112,252.35Z" style="fill:#263238"></path><path d="M112.21,237.11c-.3,1.57-.68,3.13-1,4.7s-.55,3-.94,4.42a7.61,7.61,0,0,1-2.06,3.7c-.57.53-1.21,1-1.82,1.5l-1,.79c0-.21.09-.42.12-.64.11-.6.21-1.19.31-1.79.22-1.33.43-2.66.64-4,.4-2.62.76-5.26,1.31-7.84,0-.11-.14-.15-.16,0-.65,2.56-1.37,5.09-1.94,7.68-.28,1.27-1.27,7.53-1.31,8s-.09.92-.1,1.38a5,5,0,0,0,0,1.4c0,.12.16.1.21,0h0a5.21,5.21,0,0,0,.4-1.36c.12-.44.22-.9.3-1.35,0-.16,0-.33.07-.5.62-.37,1.19-.87,1.77-1.29s1.26-.89,1.84-1.38A7.05,7.05,0,0,0,111,247a25.45,25.45,0,0,0,.74-4.5c.2-1.78.34-3.57.59-5.34C112.39,237,112.23,237,112.21,237.11Z" style="fill:#263238"></path><path d="M96,177.07c3.43,10.33,18.79,43.17,25.24,45.47,6.72,2.38,32.67,5.35,38.43.82,2.82-2.23,3.8-26,0-25.4s-26.68,1.43-29.4.46S109.38,171,102,164.56C89.27,153.51,94.17,171.5,96,177.07Z" style="fill:#f7a9a0"></path><path d="M153.93,197.56l-.37,29.59s-26.61.07-33.7-3.66-22.09-37.92-25.84-51,2.25-15.1,11.78-5.5,23.86,29.72,25.56,30.13S153.93,197.56,153.93,197.56Z" style="fill:#0095F6"></path><path d="M118.42,181.61a54.23,54.23,0,0,0-15.72,5.2l-.9.47c-.23.11-.45.23-.67.36-.44.23-.87.47-1.3.73l-.19-.48.91-.53.66-.35c.41-.23.83-.46,1.25-.67a50.13,50.13,0,0,1,7.91-3.28,52.62,52.62,0,0,1,7.72-1.87Zm5.94,7.47a15.82,15.82,0,0,1-1.45.67,14.85,14.85,0,0,1-4,1.06c-.7.08-1.4.2-2.1.24l-2.11.06a23.27,23.27,0,0,1-8.22-1.74c-1.57-.61-3.1-1.35-4.63-2.09-.2-.08-.39-.18-.59-.27-.48-.22-1-.45-1.45-.66l-.47-.2-.44-.19.17.42c0,.12.1.24.14.36h0l.09,0,1.29.58.58.28c1.66.79,3.33,1.63,5.07,2.31a23.93,23.93,0,0,0,8.44,1.79l2.16-.05c.72,0,1.44-.17,2.15-.25a15.66,15.66,0,0,0,4.2-1.09,16,16,0,0,0,1.63-.75Zm-10.24-12.74a53.8,53.8,0,0,0-5.45,2.92,71.11,71.11,0,0,0-9.38,6.89l-.27.23c0,.12.1.24.14.36h0l0,.08s0,0,.06,0c.17-.15.33-.3.5-.43a71,71,0,0,1,9.19-6.64,62.13,62.13,0,0,1,5.53-2.94Z" style="fill:#fff"></path><path d="M146.18,212.17c0-2.35.17-11.72.38-14,0,0,.07,0,.07,0,.23,2.26.35,11.51.34,13.86a128.92,128.92,0,0,1-.53,14,.08.08,0,0,1-.15,0C145.94,221.42,146.13,216.79,146.18,212.17Z" style="fill:#263238"></path><path d="M94,172.48c3.75,13.09,18.75,47.27,25.84,51,3.4,1.79,11.28,2.71,18.57,3.17L96.65,161C93.08,160.62,91.73,164.49,94,172.48Z" style="opacity:0.1"></path><path d="M60.38,244.47c.16.16,65.08-4.28,65.62-5,.76-1-19.79-67-24.94-76.65-2.19-4.13-12.69-4.73-16.84-.82-10.39,9.77-17.62,41.36-19.14,50.83C62.56,228.45,59.8,243.9,60.38,244.47Z" style="fill:#0095F6"></path><path d="M122.53,226.34l-1.82-1.07a80.66,80.66,0,0,0-7.57-3.89l-1.42-.62-.69-.28a49,49,0,0,0-5.87-2A43.94,43.94,0,0,0,96.81,217,54.49,54.49,0,0,0,80,218.9l-1,.28c-.25.06-.49.13-.73.21a69.23,69.23,0,0,0-11.07,4.46c-1,.47-2,1-2.92,1.49l-.3.16-1.1.59.09-.51L64.1,225c1.12-.61,2.25-1.2,3.39-1.75.94-.48,1.9-.93,2.86-1.36A68,68,0,0,1,77.77,219l.73-.21c.45-.15.9-.28,1.36-.4a49,49,0,0,1,8.42-1.59,52,52,0,0,1,8.56-.22,47.07,47.07,0,0,1,14.57,3.65l.68.3,1.19.53a78.85,78.85,0,0,1,7.57,4l1.56.92Zm-3.36-11c-1.66,1-3.28,2-4.89,3.06-1,.62-1.91,1.25-2.87,1.86l-.38.25c-1.31.84-2.64,1.65-4,2.41a25.75,25.75,0,0,1-7.85,3,15.1,15.1,0,0,1-4.19.21c-.7-.07-1.41-.09-2.1-.19l-2.08-.37a23.45,23.45,0,0,1-7.69-3.39c-1.41-.92-2.75-2-4.11-3l-.52-.39c-.42-.32-.85-.64-1.28-.94l-.41-.3-.6-.41a15,15,0,0,0-8.13-2.77,9.38,9.38,0,0,0-3.36.69l-.09.54a9.38,9.38,0,0,1,3.44-.72,14.45,14.45,0,0,1,7.81,2.75l.35.24.41.29c.38.27.76.55,1.13.84l.52.39c1.47,1.12,2.93,2.28,4.5,3.3a23.92,23.92,0,0,0,7.88,3.48l2.14.39c.71.1,1.43.13,2.15.2a16.21,16.21,0,0,0,4.34-.21,26,26,0,0,0,8-3.1c1.49-.84,2.94-1.75,4.37-2.69l.37-.23,2.52-1.65c1.56-1,3.14-2,4.74-3Zm-1.1-3.54a50.84,50.84,0,0,0-5.29-1.4,39.62,39.62,0,0,0-8.55-.78,50,50,0,0,0-8.55.9,55.47,55.47,0,0,0-8.29,2.24,70.55,70.55,0,0,0-10.58,4.82c-.2.1-.39.21-.58.32-1.42.79-2.81,1.61-4.19,2.46-1.53.94-3.05,1.91-4.55,2.89-1.17.75-2.33,1.52-3.49,2.28l-1.12.73c0,.16-.05.31-.07.46,1.48-.94,2.94-1.9,4.41-2.84,1-.67,2.08-1.34,3.13-2,.63-.4,1.26-.79,1.9-1.17,1.44-.87,2.91-1.72,4.39-2.53l.58-.31a69.94,69.94,0,0,1,10.35-4.62,55.45,55.45,0,0,1,16.66-3.18,39.47,39.47,0,0,1,8.47.72,50.13,50.13,0,0,1,5.51,1.44C118.16,212.06,118.11,211.91,118.07,211.77Z" style="fill:#fff"></path><path d="M75.5,169.5c-17.23,19-36.66,51.11-28.35,58,7.6,6.26,35.32.3,52.75-6.51,3.32-1.3-10.14-30.64-13.52-28.9a96.64,96.64,0,0,1-11,5c-1,.26,4.28-6.14,10.12-21.52C91.4,159.86,85.35,158.63,75.5,169.5Z" style="fill:#f7a9a0"></path><path d="M128.73,189.87c0,3.41-8.39,2.74-8.39,2.74A6.25,6.25,0,0,1,122.9,196c.63,2.51-3,4.61-3,4.61a7.81,7.81,0,0,1,2.13,4c.36,2.46-3,5.11-3,5.11a6.81,6.81,0,0,1-.38,4.73c-2,3.89-8.72,4-12.87,4.84a88.07,88.07,0,0,0-13.62,4.34l-7.72-30.65s18-10.69,23-10.45C111.66,182.82,128.71,184.65,128.73,189.87Z" style="fill:#f7a9a0"></path><path d="M120.27,192.51c-4.46-1.3-9.22-1.52-13.81-1.69-.1,0-.11.15,0,.16,4.58.11,9.23,1.45,13.78,1.75A.11.11,0,0,0,120.27,192.51Z" style="fill:#263238"></path><path d="M119.75,200.3a12,12,0,0,0-3.16-.17c-1.12,0-2.24.05-3.36.1q-3.37.15-6.72.48c-.1,0-.11.16,0,.16,2.24-.1,4.48-.17,6.71-.18l3.36,0a14,14,0,0,0,3.17-.1A.16.16,0,0,0,119.75,200.3Z" style="fill:#263238"></path><path d="M118.87,209.81a8.26,8.26,0,0,0-2.85,0L113,210c-2,.11-4.09.23-6.14.27a.08.08,0,0,0,0,.16c2.08,0,4.16,0,6.24-.09l3.06-.09a7.78,7.78,0,0,0,2.76-.33A.05.05,0,0,0,118.87,209.81Z" style="fill:#263238"></path><path d="M83.57,192.73l6.64,33s-41.27,10.77-45.55.33,20-49.21,34-60.27,8.74,6.36,8.31,7.76c-1.89,6.19-10.69,22.33-10.69,22.33Z" style="fill:#0095F6"></path><path d="M90.21,225.69s-41.27,10.77-45.55.33c-2.3-5.62,3.66-19.43,11.83-32.72l.13-.21.17-.27c.05-.09.11-.18.17-.27a164.88,164.88,0,0,1,9.56-13.79l.35-.45a77.3,77.3,0,0,1,11.77-12.56c14-11.06,8.74,6.36,8.31,7.76-.13.44-.3.93-.5,1.46-.08.2-.16.42-.25.64-1.15,2.94-3,6.9-4.87,10.54l-.22.44s0,.1-.07.14l-.12.23c-2.37,4.67-4.52,8.63-4.65,8.87l7.3-3.1Z" style="fill:#0095F6"></path><path d="M81.33,186.15l-.22.44s0,.1-.07.14l-.5.32-4.07,2.65A61.13,61.13,0,0,1,69,193.9a19.45,19.45,0,0,1-4.09,1.36,8.44,8.44,0,0,1-4.32-.13c-.35-.1-.71-.18-1-.29l-1-.43a14.12,14.12,0,0,1-1.92-1l-.15-.09.13-.21.17-.27a.72.72,0,0,0,.15.11l.14.08a11.17,11.17,0,0,0,1.7.92l1,.42,1,.29a8,8,0,0,0,4.1.15,19.27,19.27,0,0,0,4-1.3,61.85,61.85,0,0,0,7.43-4.1l3.25-2.08.85-.55Zm-1,.61c-5.13,1.25-10.16,2.84-15.28,4.09-2.68.67-5.4,1.26-8.13,1.7-.06.09-.12.18-.17.27l-.17.27.46-.08c2.73-.46,5.44-1.07,8.12-1.75,4.81-1.21,9.53-2.71,14.32-3.95l1-.26c.12,0,.25-.07.38-.09l.12-.23s0-.09.07-.14Zm.33-8.31a23.87,23.87,0,0,1-3.89,1.67,10.28,10.28,0,0,1-4.1.52,13.23,13.23,0,0,1-5.84-2.33l-.35.45a13.81,13.81,0,0,0,6.13,2.39,10.63,10.63,0,0,0,4.31-.58,23.18,23.18,0,0,0,4-1.73,60.74,60.74,0,0,0,5.29-3.23c.09-.22.17-.44.25-.64A64.6,64.6,0,0,1,80.7,178.45Z" style="fill:#fff"></path><path d="M82.86,192.76c-4.74,1.66-17.16,7.86-19.89,10.4a.09.09,0,0,0,.1.14c2.68-1.89,18-9.4,20.43-10.32,0,0,.12.29.17.37s.14.05.14-.06a6.26,6.26,0,0,0-.18-.8Z" style="fill:#263238"></path><path d="M79.33,211.2c-.45-2.3-2.17-11.52-2.42-13.84,0,0,0-.05.06,0,.68,2.16,2.64,11.21,3.1,13.51a127.53,127.53,0,0,1,2.29,13.86c0,.08-.12.13-.15,0C81,220.31,80.21,215.73,79.33,211.2Z" style="fill:#263238"></path><path d="M75.94,196c1.29-2.81,2.87-5.48,4.29-8.22s2.89-5.46,4.21-8.23a0,0,0,1,1,.06,0c-.8,1.89-1.6,3.78-2.46,5.64.26-.29.5-.6.74-.91.44-.56.84-1.15,1.24-1.74,0,0,.07,0,.06,0a9.61,9.61,0,0,1-1.15,1.86,10.53,10.53,0,0,1-1.1,1.21c-.35.76-.72,1.52-1.1,2.27a60.47,60.47,0,0,1-4.31,8.06C76.36,196.13,75.89,196.13,75.94,196Z" style="fill:#263238"></path><path d="M62.24,230.34c4.87-.06,23.26-3.67,27.81-4.61-.06-.48,0-.65-.12-1.33,0-.09.13-.13.15,0,.12.65.56,1.94.38,2-2.19.86-23.44,4.57-28.22,4.17A.1.1,0,0,1,62.24,230.34Z" style="fill:#263238"></path><polygon points="111.76 227.01 146 231.62 158.99 184.03 124.75 179.43 111.76 227.01" style="fill:#263238"></polygon><polygon points="113.45 227.23 147.68 231.84 160.67 184.26 126.44 179.65 113.45 227.23" style="fill:#37474f"></polygon><path d="M141.84,204.23a3.74,3.74,0,0,1-4.07,2.84,3,3,0,0,1-2.59-3.73,3.75,3.75,0,0,1,4.07-2.85A3,3,0,0,1,141.84,204.23Z" style="fill:#fff"></path><path d="M160.33,194.07c1.43,4,5.51,9.21,5.57,12.37a3.64,3.64,0,0,1-2.39,3.61s3,1.87,2.53,4.74c-.21,1.48-2.77,2.44-2.77,2.44a4.3,4.3,0,0,1,1.77,4.13c-.42,2-2.92,2.67-2.92,2.67s1.5,2.57.41,4.49c-2.22,3.89-19.83,2.1-21.89-4.67-1-3.15,3.31-2.48,3.31-2.48s-5.92-2.45-5.64-6.09,5.78-2.44,5.78-2.44-5.71-2.42-5-6.17,6-1.75,6-1.75-3.65-3-2.48-5.8c1.93-4.55,8.75,2.11,12.71,1.58l2.79-6.17Z" style="fill:#f7a9a0"></path><path d="M163.3,200c-1-3.91,4.12-8.09,3.68-12-.59-5.25-6.88-.8-8.92,6.52l-.59,6Z" style="fill:#f7a9a0"></path><path d="M161.75,224.19a.05.05,0,0,1,0,.1,30.75,30.75,0,0,1-18-2.93c-.18-.09-.1-.42.11-.35A62.74,62.74,0,0,0,161.75,224.19Z" style="fill:#263238"></path><path d="M163.35,217.27c.07,0,.07.12,0,.13A28.8,28.8,0,0,1,143.87,213c-.2-.14-.24-.46,0-.32C147.9,215,157.63,217.18,163.35,217.27Z" style="fill:#263238"></path><path d="M144.71,204.5c5.67,3.61,11.92,5,18.55,5.59.08,0,.07.13,0,.14-3.32.62-7.51-.17-10.71-1.06a17.63,17.63,0,0,1-7.95-4.47C144.5,204.61,144.59,204.42,144.71,204.5Z" style="fill:#263238"></path><path d="M102.27,165.36s0,0,0,0c.12,3,.21,9.81-4.41,9.3a9.86,9.86,0,0,1-4.93-2.58A25.51,25.51,0,0,1,89,168a39.08,39.08,0,0,1-3.56-5.19c0-.07-.16,0-.11.08,1.06,1.83,1.94,3.72,3.18,5.45a22.64,22.64,0,0,0,4.14,4.49A9.85,9.85,0,0,0,98,175.37a3.72,3.72,0,0,0,3.85-2.73A16.45,16.45,0,0,0,102.27,165.36Z" style="fill:#263238"></path><path d="M97.72,171.65c-3.34.29-8.8-6-10.4-10.27a67.87,67.87,0,0,1,1.59-6.6c.51-2.11,1-4.48,1.36-6.67l13.26,5.35a35.57,35.57,0,0,0-2.56,8.23,4.69,4.69,0,0,0,0,.91s0,.1,0,.15C101,164.5,100.94,171.37,97.72,171.65Z" style="fill:#f7a9a0"></path><path d="M100.93,162.6a.74.74,0,0,1,0,.15,9.17,9.17,0,0,1-1.42-.12c-7.94-1.35-8.39-11.36-8.35-14.15l3.32,1.33,9,3.65a35.24,35.24,0,0,0-2.55,8.23A4.76,4.76,0,0,0,100.93,162.6Z" style="fill:#263238"></path><path d="M88.75,133.11c-1.38,5,1.58,19.13,5.16,22.21,5.2,4.48,13.52,4.71,17.28-1.5,3.64-6-.54-24.41-4.53-27.19C100.79,122.52,90.78,125.77,88.75,133.11Z" style="fill:#f7a9a0"></path><path d="M102.72,142.05s-.06.06,0,.1c.22.95.32,2.08-.48,2.57,0,0,0,.06,0,.05C103.23,144.41,103.09,142.92,102.72,142.05Z" style="fill:#263238"></path><path d="M101.67,141.23c-1.56.2-1,3.3.39,3.12S103,141.07,101.67,141.23Z" style="fill:#263238"></path><path d="M108.15,141s.09,0,.09.08c.13,1,.44,2.05,1.36,2.23a0,0,0,0,1,0,.05C108.51,143.36,108.12,141.92,108.15,141Z" style="fill:#263238"></path><path d="M108.85,139.84c1.53-.37,2.16,2.71.74,3S107.57,140.15,108.85,139.84Z" style="fill:#263238"></path><path d="M100.21,140a9.52,9.52,0,0,0,1.13-.62,2,2,0,0,0,1-.85.67.67,0,0,0-.24-.78,1.65,1.65,0,0,0-1.67.1,2.42,2.42,0,0,0-1.2,1.26A.71.71,0,0,0,100.21,140Z" style="fill:#263238"></path><path d="M109.85,138.89c-.44,0-.85-.08-1.29-.12a2.1,2.1,0,0,1-1.29-.37.68.68,0,0,1-.09-.81,1.65,1.65,0,0,1,1.57-.57,2.4,2.4,0,0,1,1.61.68A.71.71,0,0,1,109.85,138.89Z" style="fill:#263238"></path><path d="M102.86,151.05a1.53,1.53,0,0,0,.91.44,2.63,2.63,0,0,0,1-.42s.07,0,0,.05a1.33,1.33,0,0,1-1.14.72,1.05,1.05,0,0,1-.89-.73C102.76,151.06,102.83,151,102.86,151.05Z" style="fill:#263238"></path><path d="M103.4,147.78a3.35,3.35,0,0,0,2.43,1.1,4.4,4.4,0,0,0,1.19-.14l.22-.06.2-.07a.24.24,0,0,0,.16-.25h0a.29.29,0,0,0,0-.1h0v-.08c-.1-.75-.36-1.86-.36-1.86.29.09,1.78.49,1.69.1a49.57,49.57,0,0,0-2.89-9.7.09.09,0,0,0-.17,0c.56,3.08,1.67,6,2.29,9.11a5.7,5.7,0,0,0-1.63-.21c-.1,0,.54,2.14.55,2.48,0,0,0,0,0,0a4.61,4.61,0,0,1-3.56-.5C103.4,147.63,103.33,147.71,103.4,147.78Z" style="fill:#263238"></path><path d="M106.58,148.56a3.94,3.94,0,0,1-1.34,1.43,1.73,1.73,0,0,1-1,.23c-.79-.07-.92-.76-.88-1.38a4.05,4.05,0,0,1,.19-1A5.06,5.06,0,0,0,106.58,148.56Z" style="fill:#263238"></path><path d="M105.24,150a1.73,1.73,0,0,1-1,.23c-.79-.07-.92-.76-.88-1.38A1.8,1.8,0,0,1,105.24,150Z" style="fill:#ff9abb"></path><path d="M109.38,130.76c-.8-1.11-1.68-2.22-2.48-2.31s-.89,1.83-2.55,2.31c-2.25.64-3.8-1.21-7-.75-4.65.67-5.84,4.93-4.55,11.44,1.15,5.82-2.23,7.12-2.23,7.12s-4.88-12.33-2.19-17.34,10.56-8.66,17-5.81C107.67,126.45,109.38,130.76,109.38,130.76Z" style="fill:#263238"></path><path d="M92.92,145.34s-3.43-4.45-5.46-3.21.68,7.8,3.18,8.6a2.48,2.48,0,0,0,3.27-1.49Z" style="fill:#f7a9a0"></path><path d="M88.28,144s0,0,0,.07a6.31,6.31,0,0,1,3.43,3.79,1.38,1.38,0,0,0-2.08-.28s0,.1.05.09a1.54,1.54,0,0,1,1.72.45,8.46,8.46,0,0,1,.87,1.33c.08.15.36.06.29-.12l0,0C92.49,147.09,90.65,144.1,88.28,144Z" style="fill:#263238"></path><path d="M100.71,123.66a21.15,21.15,0,0,0-6-.81c-2.29.07-9.26,1.72-10.73,3.4s-.87,8.4-.76,9.38,1.46,6.79,3.82,7.88,1-8.94,3.83-12.78S100.71,123.66,100.71,123.66Z" style="fill:#0095F6"></path><path d="M100.71,123.67s-7,3.22-9.89,7.06S89.34,144.59,87,143.51a4.72,4.72,0,0,1-2.26-2.84c0-3,.45-7.7,2.39-11.22,1.82-3.29,5.51-5.4,9.63-6.53A23.16,23.16,0,0,1,100.71,123.67Z" style="opacity:0.1"></path><path d="M88.5,149.35c-.23-2.69,1.36-10.25,3.56-14.78s10.17-8.22,11.34-8.34c2.86-.28,3.7,1,4.11.65s-2.93-3.1-3.81-3.45a9.22,9.22,0,0,0-4.07-.36c-1.23.22-8.7,2.17-10.95,5.84S84,142.27,85,144.48c.26.53,1,.77,1.41,1.53.48,1,.88,2.15,1.31,2.83S88.52,149.58,88.5,149.35Z" style="fill:#0095F6"></path><path d="M92.42,132.64a14.2,14.2,0,0,1-2-1.06,9.51,9.51,0,0,1-1.84-1.44s-.11,0-.07.06a7.57,7.57,0,0,0,1.73,1.66,6.23,6.23,0,0,0,2.19.92A.07.07,0,0,0,92.42,132.64Z" style="fill:#263238"></path><path d="M88.06,146.69c-.11-.18-.26-.33-.38-.5a2.91,2.91,0,0,1-.35-.62,6.11,6.11,0,0,0-.51-1.24,4.74,4.74,0,0,0-.76-.79,1.86,1.86,0,0,1-.7-1,0,0,0,1,0-.08,0c.12.81.75,1.3,1.21,1.92a7.87,7.87,0,0,1,.58,1.33,2.1,2.1,0,0,0,.88,1C88,146.82,88.09,146.76,88.06,146.69Z" style="fill:#263238"></path><path d="M88.52,143.67c-.3-.26-.61-.49-.89-.78s-.5-.6-.73-.91-.41-.64-.63-1-.55-.71-.79-1.1c0,0-.1,0-.07.06.25.39.42.84.65,1.24a9.91,9.91,0,0,0,.68,1,6.38,6.38,0,0,0,.78.86,2.81,2.81,0,0,0,1,.62S88.54,143.69,88.52,143.67Z" style="fill:#263238"></path><path d="M89.08,140.92a7.42,7.42,0,0,1-1.7-1.41c-.48-.54-.94-1.11-1.38-1.68,0,0-.1,0-.07,0a8.7,8.7,0,0,0,1.23,1.88,4.37,4.37,0,0,0,.81.74A6.08,6.08,0,0,0,89,141S89.13,141,89.08,140.92Z" style="fill:#263238"></path><path d="M89.74,138.26a2.63,2.63,0,0,1-.81-.6q-.42-.39-.81-.81c-.26-.27-.52-.52-.77-.79a2.67,2.67,0,0,1-.63-.9s-.09,0-.08,0a2.45,2.45,0,0,0,.47,1,7,7,0,0,0,.76,1,9.71,9.71,0,0,0,.89.81,1.79,1.79,0,0,0,.95.45A.06.06,0,0,0,89.74,138.26Z" style="fill:#263238"></path><path d="M90,135q-.44-.3-.84-.63c-.26-.23-.52-.46-.77-.7s-.54-.5-.79-.77c0,0-.1,0-.07.05a6.34,6.34,0,0,0,.65.89,7.88,7.88,0,0,0,.77.76,7.76,7.76,0,0,0,.86.65,2.61,2.61,0,0,0,1,.47.06.06,0,0,0,0-.1A5.52,5.52,0,0,0,90,135Z" style="fill:#263238"></path><path d="M94.23,130.8c-.32-.28-.63-.56-1-.82s-.71-.49-1.09-.71a11.29,11.29,0,0,0-2.28-1.07s-.09.05,0,.08c1.42.88,2.89,1.7,4.31,2.6A.05.05,0,0,0,94.23,130.8Z" style="fill:#263238"></path><path d="M95.48,128.27a6.16,6.16,0,0,0-1-.71,11.53,11.53,0,0,0-2.48-.91c-.06,0-.09.06,0,.08.77.35,1.54.69,2.28,1.08.36.2.73.4,1.07.63s.63.54,1,.79c0,0,.07,0,0,0A3.2,3.2,0,0,0,95.48,128.27Z" style="fill:#263238"></path><path d="M97.53,126.88a5.67,5.67,0,0,0-1-.72,6.81,6.81,0,0,0-2.12-.84s-.07.07,0,.09a12.34,12.34,0,0,1,2,1c.32.2.64.42,1,.64s.61.5.94.68c0,0,.05,0,0,0A6.21,6.21,0,0,0,97.53,126.88Z" style="fill:#263238"></path><path d="M98.92,125.3c-.31-.18-.64-.35-1-.51a3.62,3.62,0,0,0-1-.38,0,0,0,0,0,0,.09l1.82,1.07a9.45,9.45,0,0,1,1.48,1.27s.06,0,0,0A3.4,3.4,0,0,0,98.92,125.3Z" style="fill:#263238"></path><path d="M100.85,124.56a5.64,5.64,0,0,0-1.95-.83c-.05,0-.07.07,0,.09a6.7,6.7,0,0,1,1.81,1,9.44,9.44,0,0,1,1.52,1.38s.07,0,.05,0A4.52,4.52,0,0,0,100.85,124.56Z" style="fill:#263238"></path><path d="M103.66,125.34a3.47,3.47,0,0,0-.3-.37,4.69,4.69,0,0,0-.7-.63,9.87,9.87,0,0,0-1.69-.92,0,0,0,1,0,0,.08,7.67,7.67,0,0,1,1.6,1,5.76,5.76,0,0,1,.68.62,3.17,3.17,0,0,1,.3.34,2.3,2.3,0,0,0,.28.34,0,0,0,0,0,.07,0A1.6,1.6,0,0,0,103.66,125.34Z" style="fill:#263238"></path><path d="M105.28,125.23a7.17,7.17,0,0,0-.58-.52,5.58,5.58,0,0,0-.64-.44c-.23-.14-.46-.27-.68-.42,0,0-.1.05,0,.08a4.39,4.39,0,0,1,.66.47l.58.48.59.48a5.76,5.76,0,0,0,.59.5,0,0,0,0,0,0,0A3.59,3.59,0,0,0,105.28,125.23Z" style="fill:#263238"></path></g><g id="freepik--speech-bubble--inject-4"><path d="M166.43,106.31a21.73,21.73,0,0,1-36.32,13.75l-10.88,1.6,5.44-9.4a21.74,21.74,0,1,1,41.76-6Z" style="fill:#fff"></path><path d="M166.43,106.31a21.87,21.87,0,0,1-4.39,11,19.63,19.63,0,0,1-4.26,4.21,21.1,21.1,0,0,1-5.25,2.92,21.82,21.82,0,0,1-5.85,1.4,23.42,23.42,0,0,1-3,.06,20.36,20.36,0,0,1-3-.32,21.89,21.89,0,0,1-10.75-5.31l.25.08L119.29,122l-.79.12.4-.69,5.41-9.43,0,.38A22,22,0,0,1,125.62,93a22.28,22.28,0,0,1,6.81-7.25,22,22,0,0,1,34,20.52Zm0,0a21.51,21.51,0,0,0-24.65-23.53,21.46,21.46,0,0,0-9,3.55,22.44,22.44,0,0,0-6.51,7.1,21.55,21.55,0,0,0-2.76,9.19,21.93,21.93,0,0,0,1.53,9.48l.08.19-.1.18-5.48,9.38-.38-.57,10.88-1.53.15,0,.11.1a21.39,21.39,0,0,0,10.41,5.36,18.29,18.29,0,0,0,3,.36,21,21,0,0,0,3,0,21.43,21.43,0,0,0,5.81-1.28,20.13,20.13,0,0,0,5.24-2.83,23.29,23.29,0,0,0,2.3-1.91,24.89,24.89,0,0,0,2-2.25A21.85,21.85,0,0,0,166.43,106.31Z" style="fill:#263238"></path><polygon points="142.26 116.45 132.98 107.05 136.1 103.97 141.52 109.46 152.79 91.79 156.49 94.15 142.26 116.45" style="fill:#0095F6"></polygon></g></svg>